<?xml version="1.0" standalone="no"?>
<!DOCTYPE svg PUBLIC "-//W3C//DTD SVG 20010904//EN"
 "http://www.w3.org/TR/2001/REC-SVG-20010904/DTD/svg10.dtd">
<svg version="1.0" xmlns="http://www.w3.org/2000/svg"
 width="512.000000pt" height="512.000000pt" viewBox="0 0 512.000000 512.000000"
 preserveAspectRatio="xMidYMid meet">
<metadata>
Created by potrace 1.11, written by Peter Selinger 2001-2013
</metadata>
<g transform="translate(0.000000,512.000000) scale(0.100000,-0.100000)"
fill="#000000" stroke="none">
<path d="M2379 5116 c-2 -2 -38 -6 -79 -10 -64 -6 -213 -30 -315 -51 -58 -12
-202 -55 -291 -86 -398 -140 -788 -408 -1064 -729 -64 -74 -76 -89 -143 -180
-208 -280 -367 -643 -436 -995 -40 -200 -46 -267 -45 -515 0 -183 3 -241 19
-345 3 -16 7 -43 9 -60 7 -48 36 -185 52 -245 155 -566 479 -1042 948 -1394
321 -240 732 -415 1112 -471 22 -4 50 -8 64 -11 103 -19 473 -26 600 -12 147
17 153 18 250 38 30 6 66 13 80 16 111 21 368 110 505 175 656 311 1151 881
1364 1574 78 254 105 448 106 740 0 193 -3 251 -16 330 -4 28 -10 66 -13 85
-2 19 -10 60 -16 90 -6 30 -14 66 -16 80 -18 88 -89 307 -139 425 -256 606
-778 1120 -1390 1367 -133 54 -376 126 -485 144 -70 11 -93 15 -195 30 -46 6
-460 16 -466 10z"/>
</g>
</svg>
